<svg id="Layer_1" xmlns="http://www.w3.org/2000/svg" viewBox="0 0 81.57 70.87"><style>.st0{fill:#FFFFFF;}</style><path class="st0" d="M53.92 20.16c-1.71-.68-3.72 1.1-4.49 2.92-.77 1.81-1.03 5.43-1.03 5.43s1.28.84 2.96.87c2.04.03 3.39-1.7 3.97-3.47.9-2.78.3-5.06-1.41-5.75z"/><path class="st0" d="M55.07 16.74c2.52 0 4.65 1.67 4.62 5.14-.02.94-.13 1.86-.33 2.73l10.49-11.74-18.1-4-1.72 10.27c1.57-1.71 3.29-2.4 5.04-2.4zM44.15 30.39l1.1-6.57 2.65-15.8L11.72 0c10.77 7.79 18.42 15.93 21.8 26.7l1.63-9.67h4l-.74 3.52c.91-1.51 2.81-3.35 4.55-3.69.33-.06.98-.07 1.17-.05l-.71 4.43c-1.72-.26-5.16 1.15-5.65 3.94l-1.21 7.22h-1.69c.04.23.08.47.11.7.84 5.75.62 12.22-.78 19.67l18.08-20.24c-.01 0-.03.01-.04.01-4.09.82-8.09-2.15-8.09-2.15zM56.08 28.29l-.02.02.01-.01s0-.01.01-.01zM56.07 28.3zM56.06 28.31l.02-.02-.02.02z"/><g><path class="st0" d="M46.01 65.64c.56.93.83 1.73.98 2.86l.06.49 2.19-2.81-3.5-.98.27.44zM4.56 63.16h1.68v7.56H4.56v-3.3H1.68v3.3H0v-7.56h1.68v3.02h2.88v-3.02zM11.3 67.74v2.98H9.62v-3.01l-2.31-4.56h1.82l1.41 3.25 1.52-3.25h1.49l-2.25 4.59zM17.81 66.38h2.51v4.05c-.51.18-1.55.43-2.52.43-1.34 0-2.31-.35-2.99-1.02-.66-.68-1.03-1.68-1.03-2.8.01-2.56 1.79-4.02 4.19-4.02.85 0 1.52.16 1.92.31l-.23 1.46c-.4-.19-.91-.33-1.73-.33-1.4 0-2.47.82-2.47 2.48 0 1.61.98 2.53 2.36 2.53.37 0 .71-.05.84-.1v-1.74h-1.03l.18-1.25zM23.71 63.16v7.56h-1.68v-7.56h1.68zM27.09 69.41h2.58l-.2 1.32h-4.05v-7.56h4.16v1.32h-2.49v1.7h2.19l-.19 1.25h-2v1.97zM35.58 63.16h1.47v7.56h-1.68l-2.75-5.24v5.24h-1.47v-7.56h1.87l2.56 4.72v-4.72zM40.4 69.41h2.58l-.2 1.32h-4.05v-7.56h4.15v1.32H40.4v1.7h2.19l-.19 1.25h-2v1.97z"/><g><path class="st0" d="M56.81 63.16h1.68v7.56h-1.68v-3.3h-2.88v3.3h-1.68v-7.56h1.68v3.02h2.88v-3.02zM66.76 66.86c0 2.51-1.42 4.01-3.55 4.01h-.01c-2.14 0-3.4-1.7-3.4-3.87 0-2.27 1.39-3.97 3.53-3.97 2.22-.01 3.43 1.73 3.43 3.83zm-1.7.05c0-1.36-.63-2.53-1.77-2.53-1.16 0-1.81 1.15-1.81 2.56 0 1.44.67 2.55 1.8 2.55h.01c1.12.01 1.77-1.08 1.77-2.58zM75.33 63.16l.38 7.56h-1.55l-.23-5.68-1.65 5.68h-1.27l-1.4-5.5-.3 5.5h-1.47l.46-7.56h2.14l1.34 5.14 1.45-5.14h2.1zM78.98 69.41h2.58l-.2 1.32h-4.05v-7.56h4.16v1.32h-2.49v1.7h2.19l-.19 1.25h-2v1.97z"/></g></g></svg>