<svg id="Layer_1" xmlns="http://www.w3.org/2000/svg" viewBox="0 0 280.05 87.9"><style>.st0{fill-rule:evenodd;clip-rule:evenodd;fill:#FFFFFF;} .st1{fill:none;stroke:#FFFFFF;stroke-miterlimit:10;} .st2{fill:#FFFFFF;}</style><path class="st0" d="M126.96 26.38h26.13c1.03 0 1.87.85 1.87 1.88 0 1.03-.84 1.87-1.87 1.87h-26.13c-1.03 0-1.87-.85-1.87-1.87 0-1.04.85-1.88 1.87-1.88zM140.53.31c1.05 2.06 3.01 3.91 5.07 4.87.19.09.31.26.32.48.02.22-.09.4-.26.51-1.83 1.12-3.05 3.13-3.05 5.43 0 3.5 2.84 6.35 6.35 6.35s6.35-2.85 6.35-6.35c0-1.32-.4-2.54-1.09-3.55-.03-.08-.07-.14-.11-.21-.11-.18-.12-.37-.03-.56.09-.18.26-.3.46-.31 1.97-.16 3.65-.61 5.85-2.15.21-.14.48-.14.68.02.2.16.26.42.17.66l-7.72 18.76h-27L118.81 5.5c-.1-.24-.03-.5.17-.66.2-.16.47-.16.68-.02 2.2 1.54 3.88 1.99 5.85 2.15.2.01.37.13.46.31.09.19.08.38-.03.56-.04.07-.08.13-.12.21-.69 1.01-1.08 2.23-1.08 3.55 0 3.5 2.84 6.35 6.35 6.35s6.35-2.85 6.35-6.35c0-2.3-1.22-4.31-3.04-5.43-.18-.11-.28-.29-.26-.51.01-.22.13-.39.32-.48 2.05-.97 4.01-2.81 5.07-4.87.11-.2.29-.31.51-.31.2 0 .38.12.49.31z"/><path class="st1" d="M72.81 83.87H.5V28.25h279.05v55.62h-72.31"/><path class="st2" d="M14.67 45.88h10.26c1.88 0 3.42.21 4.64.64 1.21.43 2.18 1.02 2.92 1.75.64.64 1.12 1.36 1.44 2.16.32.8.48 1.74.48 2.82v.06c0 1.54-.37 2.84-1.11 3.9-.74 1.06-1.75 1.9-3.03 2.52l4.89 7.14h-8.01l-3.96-6h-1.5v6h-7.02V45.88zm10.05 9.99c.84 0 1.5-.18 1.98-.54.48-.36.72-.86.72-1.5v-.06c0-.68-.24-1.18-.72-1.51s-1.13-.5-1.95-.5h-3.06v4.11h3.03zM47.07 67.33c-1.62 0-3.13-.28-4.52-.84-1.39-.56-2.6-1.33-3.63-2.31-1.03-.98-1.83-2.13-2.42-3.46-.58-1.33-.87-2.75-.87-4.27v-.06c0-1.52.29-2.95.88-4.28.59-1.33 1.4-2.49 2.43-3.48 1.03-.99 2.24-1.77 3.65-2.34 1.4-.57 2.91-.86 4.53-.86s3.12.28 4.52.84c1.39.56 2.6 1.33 3.63 2.31 1.03.98 1.83 2.13 2.42 3.46.58 1.33.87 2.76.87 4.28v.06c0 1.52-.3 2.95-.89 4.27-.59 1.33-1.4 2.49-2.43 3.48-1.03.99-2.25 1.77-3.65 2.34-1.39.57-2.9.86-4.52.86zm.06-6.21c.66 0 1.26-.13 1.8-.39s1-.61 1.38-1.04c.38-.43.67-.92.87-1.48.2-.56.3-1.15.3-1.77v-.06c0-.62-.1-1.21-.31-1.79s-.51-1.08-.89-1.52c-.38-.44-.84-.79-1.38-1.05-.54-.26-1.15-.39-1.83-.39-.66 0-1.26.13-1.8.39s-1 .61-1.38 1.04c-.38.43-.67.92-.87 1.49-.2.56-.3 1.15-.3 1.77v.06c0 .62.1 1.21.32 1.79.21.57.5 1.07.88 1.51.38.44.84.79 1.38 1.05s1.15.39 1.83.39zM66.72 59.44L58.8 45.88h7.86l3.6 6.9 3.63-6.9h7.77l-7.92 13.47v7.53h-7.02v-7.44zM89.7 45.73h6.96l8.85 21.15h-7.62l-1.11-2.82h-7.35l-1.08 2.82h-7.5l8.85-21.15zm5.34 13.35l-1.92-5.1-1.92 5.1h3.84zM106.38 45.88h7.02v15h9.87v6h-16.89v-21zM142.83 67.33c-1.46 0-2.85-.26-4.15-.78-1.31-.52-2.47-1.26-3.46-2.22-1-.96-1.8-2.11-2.39-3.45-.59-1.34-.88-2.82-.88-4.44v-.06c0-1.56.28-3.01.85-4.35.57-1.34 1.36-2.5 2.37-3.48s2.19-1.75 3.56-2.29c1.36-.55 2.82-.83 4.38-.83 1.16 0 2.22.14 3.2.41.97.27 1.85.64 2.64 1.13.79.48 1.49 1.05 2.1 1.72.61.67 1.13 1.41 1.58 2.21l-5.79 3.39c-.4-.76-.9-1.37-1.48-1.84-.59-.47-1.37-.71-2.33-.71-.6 0-1.14.12-1.62.36-.48.24-.89.57-1.23.99-.34.42-.6.91-.79 1.47-.19.56-.29 1.15-.29 1.77v.06c0 .68.09 1.3.29 1.88.19.57.46 1.06.81 1.47.35.41.77.73 1.25.96s1.01.34 1.59.34c1 0 1.8-.25 2.4-.74.6-.49 1.12-1.13 1.56-1.9l5.79 3.27c-.44.78-.96 1.52-1.56 2.21-.6.69-1.31 1.29-2.11 1.8-.81.51-1.73.91-2.76 1.21-1.06.29-2.23.44-3.53.44zM154.11 45.88h7.02v15H171v6h-16.89v-21zM182.67 67.3c-1.56 0-2.98-.19-4.24-.55-1.27-.37-2.35-.96-3.26-1.76-.9-.8-1.6-1.82-2.08-3.06-.49-1.24-.73-2.73-.73-4.47V45.88h7.14v11.49c0 1.3.3 2.24.92 2.83.61.59 1.38.88 2.32.88.96 0 1.74-.27 2.34-.82.6-.55.9-1.46.9-2.75V45.88h7.14v11.43c0 1.8-.25 3.33-.75 4.59s-1.21 2.29-2.11 3.09c-.91.8-2.01 1.38-3.3 1.76-1.3.36-2.73.55-4.29.55zM195.33 45.88h11.76c1.46 0 2.67.16 3.62.48.95.32 1.73.79 2.35 1.41.38.38.69.84.93 1.38.24.54.36 1.17.36 1.89v.06c0 1.26-.34 2.27-1.02 3.04-.68.77-1.59 1.35-2.73 1.75 1.37.4 2.46.99 3.26 1.77.81.78 1.21 1.89 1.21 3.33v.06c0 .84-.17 1.62-.51 2.32-.34.71-.85 1.33-1.53 1.85s-1.53.93-2.54 1.21c-1.01.29-2.18.44-3.5.44h-11.66V45.88zm9.9 8.25c1.48 0 2.22-.48 2.22-1.44v-.06c0-.96-.75-1.44-2.25-1.44h-3.03v2.94h3.06zm.45 7.44c.76 0 1.33-.14 1.73-.42.39-.28.58-.65.58-1.11v-.06c0-.46-.19-.83-.57-1.11-.38-.28-.95-.42-1.71-.42h-3.54v3.12h3.51zM224.19 45.88h10.26c1.88 0 3.42.21 4.64.64 1.21.43 2.18 1.02 2.92 1.75.64.64 1.12 1.36 1.44 2.16.32.8.48 1.74.48 2.82v.06c0 1.54-.37 2.84-1.11 3.9-.74 1.06-1.75 1.9-3.03 2.52l4.89 7.14h-8.01l-3.96-6h-1.5v6h-7.02V45.88zm10.05 9.99c.84 0 1.5-.18 1.98-.54.48-.36.72-.86.72-1.5v-.06c0-.68-.24-1.18-.72-1.51s-1.13-.5-1.95-.5h-3.06v4.11h3.03zM245.64 45.88h11.76c1.46 0 2.67.16 3.62.48.95.32 1.73.79 2.35 1.41.38.38.69.84.93 1.38.24.54.36 1.17.36 1.89v.06c0 1.26-.34 2.27-1.02 3.04-.68.77-1.59 1.35-2.73 1.75 1.37.4 2.46.99 3.26 1.77.81.78 1.21 1.89 1.21 3.33v.06c0 .84-.17 1.62-.51 2.32-.34.71-.85 1.33-1.53 1.85s-1.53.93-2.54 1.21c-1.01.29-2.18.44-3.5.44h-11.66V45.88zm9.9 8.25c1.48 0 2.22-.48 2.22-1.44v-.06c0-.96-.75-1.44-2.25-1.44h-3.03v2.94h3.06zm.45 7.44c.76 0 1.33-.14 1.73-.42.39-.28.58-.65.58-1.11v-.06c0-.46-.19-.83-.57-1.11-.38-.28-.95-.42-1.71-.42h-3.54v3.12h3.51z"/><g><path class="st2" d="M82.9 80.91h3.17v.71H83.7v1.7h2.29v.72H83.7v1.73h2.44v.71H82.9v-5.57zM90.28 86.49v-5.58h1.88c.76 0 1.36.11 1.8.34.44.23.79.56 1.06 1.01.26.44.39.93.39 1.45 0 .37-.07.73-.22 1.07-.14.34-.35.64-.62.9-.27.27-.59.47-.95.6-.21.08-.4.14-.58.16-.18.03-.51.04-1.01.04h-1.75zm1.8-4.86h-1v4.15h1.02c.4 0 .71-.03.93-.08.22-.05.41-.12.55-.21.15-.08.28-.19.41-.31.39-.4.59-.9.59-1.52 0-.6-.2-1.09-.61-1.47-.15-.14-.32-.26-.51-.35-.19-.09-.38-.15-.55-.18-.17-.02-.45-.03-.83-.03zM99.7 80.91h.8v5.58h-.8v-5.58zM107.78 86.56l-.02.07c.14.03.26.1.34.2.08.1.12.21.12.34 0 .2-.08.38-.24.52-.16.14-.42.21-.78.21-.1 0-.19-.01-.26-.02v-.45c.14.01.22.02.26.02.15 0 .27-.03.36-.09.05-.04.08-.08.08-.14 0-.06-.03-.12-.08-.16-.05-.04-.16-.06-.3-.06-.03 0-.06 0-.09.01l.17-.47c-.42-.05-.79-.16-1.11-.35-.44-.25-.78-.6-1.03-1.04-.25-.44-.38-.91-.38-1.43 0-.81.29-1.5.87-2.05.58-.56 1.29-.83 2.15-.83.59 0 1.24.15 1.95.46v.86c-.65-.37-1.29-.56-1.91-.56-.64 0-1.17.2-1.59.61-.42.4-.63.91-.63 1.52s.21 1.12.62 1.51c.42.4.95.59 1.6.59.68 0 1.34-.21 1.98-.62v.88c-.59.32-1.26.48-2.03.48h-.05zM115.87 80.88h.56l2.5 5.62h-.82l-.74-1.65h-2.38l-.7 1.65h-.82l2.4-5.62zm1.46-1.49c0 .32-.08.57-.22.76-.11.14-.25.21-.42.21-.15 0-.34-.05-.59-.16-.25-.11-.43-.16-.56-.16-.07 0-.13.03-.18.08-.05.05-.08.13-.09.24h-.34c.04-.38.12-.63.23-.75.11-.13.25-.19.42-.19.15 0 .41.07.76.21.18.07.31.11.38.11s.14-.03.19-.08c.05-.05.09-.14.11-.27h.31zm-.29 4.74l-.9-2.02-.84 2.02h1.74zM125.56 80.83c.86 0 1.58.27 2.16.82.57.55.86 1.23.86 2.06 0 .82-.29 1.51-.87 2.04-.58.54-1.31.81-2.19.81-.84 0-1.54-.27-2.1-.81s-.84-1.22-.84-2.03c0-.83.28-1.52.85-2.07.55-.54 1.27-.82 2.13-.82zm.03.76c-.64 0-1.16.2-1.58.6-.41.4-.62.91-.62 1.53 0 .6.21 1.1.62 1.5.41.4.93.6 1.55.6s1.14-.2 1.56-.61c.42-.41.63-.91.63-1.52 0-.59-.21-1.09-.63-1.49-.41-.41-.92-.61-1.53-.61zM142.32 80.91h.8v5.58h-.8v-2.43h-3.14v2.43h-.8v-5.58h.8v2.41h3.14v-2.41zM150.37 80.83c.86 0 1.58.27 2.16.82.57.55.86 1.23.86 2.06 0 .82-.29 1.51-.87 2.04-.58.54-1.31.81-2.19.81-.84 0-1.54-.27-2.1-.81s-.84-1.22-.84-2.03c0-.83.28-1.52.85-2.07.55-.54 1.27-.82 2.13-.82zm.03.76c-.64 0-1.16.2-1.58.6-.41.4-.62.91-.62 1.53 0 .6.21 1.1.62 1.5.41.4.93.6 1.55.6s1.14-.2 1.56-.61c.42-.41.63-.91.63-1.52 0-.59-.21-1.09-.63-1.49-.41-.41-.92-.61-1.53-.61zM157.64 80.91h.8v4.86h2.51v.73h-3.31v-5.59zM166.72 80.88h.56l2.5 5.62h-.82l-.74-1.65h-2.38l-.7 1.65h-.82l2.4-5.62zm1.17 3.25l-.9-2.02-.84 2.02h1.74zM178.11 80.91h.76v5.58h-.69l-3.73-4.3v4.3h-.75v-5.58h.65l3.77 4.34v-4.34zM183.34 86.49v-5.58h1.88c.76 0 1.36.11 1.8.34.44.23.79.56 1.06 1.01.26.44.39.93.39 1.45 0 .37-.07.73-.22 1.07-.14.34-.35.64-.62.9-.27.27-.59.47-.95.6-.21.08-.4.14-.58.16-.18.03-.51.04-1.01.04h-1.75zm1.8-4.86h-1v4.15h1.02c.4 0 .71-.03.93-.08.22-.05.41-.12.55-.21.15-.08.28-.19.41-.31.39-.4.59-.9.59-1.52 0-.6-.2-1.09-.61-1.47-.15-.14-.32-.26-.51-.35-.19-.09-.38-.15-.55-.18-.16-.02-.44-.03-.83-.03zM194.08 80.88h.56l2.5 5.62h-.82l-.74-1.65h-2.38l-.7 1.65h-.82l2.4-5.62zm1.18 3.25l-.9-2.02-.84 2.02h1.74z"/></g></svg>